<?xml version="1.0" encoding="UTF-8" standalone="no"?>
<svg
   xmlns:dc="http://purl.org/dc/elements/1.1/"
   xmlns:cc="http://creativecommons.org/ns#"
   xmlns:rdf="http://www.w3.org/1999/02/22-rdf-syntax-ns#"
   xmlns:svg="http://www.w3.org/2000/svg"
   xmlns="http://www.w3.org/2000/svg"
   xmlns:sodipodi="http://sodipodi.sourceforge.net/DTD/sodipodi-0.dtd"
   xmlns:inkscape="http://www.inkscape.org/namespaces/inkscape"
   width="102.47801"
   height="112.88672"
   viewBox="0 0 27.113974 29.867945"
   version="1.1"
   id="svg8"
   inkscape:version="1.0.1 (3bc2e813f5, 2020-09-07)"
   sodipodi:docname="movie-app-logo.svg">
  <defs
     id="defs2">
    <inkscape:path-effect
       effect="bspline"
       id="path-effect939"
       is_visible="true"
       lpeversion="1"
       weight="33.333333"
       steps="2"
       helper_size="0"
       apply_no_weight="true"
       apply_with_weight="true"
       only_selected="false" />
    <inkscape:path-effect
       effect="bspline"
       id="path-effect925"
       is_visible="true"
       lpeversion="1"
       weight="33.333333"
       steps="2"
       helper_size="0"
       apply_no_weight="true"
       apply_with_weight="true"
       only_selected="false" />
    <inkscape:path-effect
       effect="bspline"
       id="path-effect923"
       is_visible="true"
       lpeversion="1"
       weight="33.333333"
       steps="2"
       helper_size="0"
       apply_no_weight="true"
       apply_with_weight="true"
       only_selected="false" />
    <inkscape:path-effect
       effect="bspline"
       id="path-effect911"
       is_visible="true"
       lpeversion="1"
       weight="33.333333"
       steps="2"
       helper_size="0"
       apply_no_weight="true"
       apply_with_weight="true"
       only_selected="false" />
    <inkscape:path-effect
       effect="bspline"
       id="path-effect897"
       is_visible="true"
       lpeversion="1"
       weight="33.333333"
       steps="2"
       helper_size="0"
       apply_no_weight="true"
       apply_with_weight="true"
       only_selected="false" />
    <inkscape:path-effect
       effect="bspline"
       id="path-effect879"
       is_visible="true"
       lpeversion="1"
       weight="33.333333"
       steps="2"
       helper_size="0"
       apply_no_weight="true"
       apply_with_weight="true"
       only_selected="false" />
    <inkscape:path-effect
       effect="bspline"
       id="path-effect875"
       is_visible="true"
       lpeversion="1"
       weight="33.333333"
       steps="2"
       helper_size="0"
       apply_no_weight="true"
       apply_with_weight="true"
       only_selected="false" />
    <inkscape:path-effect
       effect="bspline"
       id="path-effect867"
       is_visible="true"
       lpeversion="1"
       weight="33.333333"
       steps="2"
       helper_size="0"
       apply_no_weight="true"
       apply_with_weight="true"
       only_selected="false" />
    <inkscape:path-effect
       effect="bspline"
       id="path-effect857"
       is_visible="true"
       lpeversion="1"
       weight="33.333333"
       steps="2"
       helper_size="0"
       apply_no_weight="true"
       apply_with_weight="true"
       only_selected="false" />
  </defs>
  <sodipodi:namedview
     id="base"
     pagecolor="#ffffff"
     bordercolor="#666666"
     borderopacity="1.0"
     inkscape:pageopacity="0.0"
     inkscape:pageshadow="2"
     inkscape:zoom="3.959798"
     inkscape:cx="70.372481"
     inkscape:cy="51.77786"
     inkscape:document-units="mm"
     inkscape:current-layer="layer1"
     inkscape:document-rotation="0"
     showgrid="false"
     units="px"
     width="200px"
     inkscape:snap-global="false"
     inkscape:window-width="1366"
     inkscape:window-height="705"
     inkscape:window-x="-8"
     inkscape:window-y="-8"
     inkscape:window-maximized="1" />
  <metadata
     id="metadata5">
    <rdf:RDF>
      <cc:Work
         rdf:about="">
        <dc:format>image/svg+xml</dc:format>
        <dc:type
           rdf:resource="http://purl.org/dc/dcmitype/StillImage" />
        <dc:title></dc:title>
      </cc:Work>
    </rdf:RDF>
  </metadata>
  <g
     inkscape:label="Layer 1"
     inkscape:groupmode="layer"
     id="layer1"
     transform="translate(-7.0814007,-5.7459023)">
    <path
       id="path971"
       style="fill:#ff7b00;fill-opacity:1;stroke:none;stroke-width:0.245669;stroke-linecap:butt;stroke-linejoin:miter;stroke-miterlimit:4;stroke-dasharray:none;stroke-opacity:1"
       d="m 81.570312,88.388672 -10.355468,0.251953 0.253906,10.101563 -19.445312,35.607422 4.292968,0.25391 18.181641,-32.83008 0.185547,23.99023 1.953125,-12.1582 -1.894531,12.00195 4.816406,0.1836 -1.001953,-23.98047 15.892578,32.53906 h 4.798828 L 81.316406,99.248047 Z"
       transform="scale(0.26458333)" />
    <path
       style="fill:#ff7b00;fill-opacity:1;fill-rule:evenodd;stroke:none;stroke-width:0.016415;stroke-linejoin:round;stroke-miterlimit:4;stroke-dasharray:none;paint-order:markers stroke fill"
       d="m 11.279885,22.360425 c -0.203721,-0.310918 -0.266522,-1.159209 -0.22322,-3.01519 0.05642,-2.41805 0.163432,-2.926511 0.760095,-3.611389 1.1911,-1.367205 3.098128,-1.968014 7.102062,-2.237505 0.606368,-0.04081 3.13221,-0.09089 5.612983,-0.111273 L 29.0423,13.348 l 0.278921,0.302592 c 0.371888,0.403452 0.531572,0.937154 0.628455,2.10045 0.09419,1.130964 0.04797,3.901804 -0.07028,4.212767 -0.103944,0.273354 -0.815898,0.871409 -1.4014,1.177202 -1.317095,0.687884 -3.124564,1.048974 -6.251712,1.248945 -0.624743,0.03995 -3.317455,0.08903 -5.983805,0.109066 l -4.84791,0.03643 z"
       id="path994" />
    <path
       style="fill:#ff7b00;fill-opacity:1;fill-rule:evenodd;stroke:none;stroke-width:0.016415;stroke-linejoin:round;stroke-miterlimit:4;stroke-dasharray:none;paint-order:markers stroke fill"
       d="m 32.467669,19.021701 -1.585291,-0.878569 -2.65e-4,-0.7684 -2.64e-4,-0.7684 1.645891,-0.85285 c 0.905242,-0.469069 1.652111,-0.844916 1.65971,-0.835218 0.0354,0.04518 -0.05718,4.994706 -0.09332,4.988768 -0.02262,-0.0037 -0.754523,-0.402118 -1.626431,-0.885331 z"
       id="path1019" />
    <path
       style="fill:#ff7b00;fill-opacity:1;fill-rule:evenodd;stroke:none;stroke-width:0.016415;stroke-linejoin:round;stroke-miterlimit:4;stroke-dasharray:none;paint-order:markers stroke fill"
       d="m 7.0814007,17.941726 c 0,-1.377201 0.017642,-2.504001 0.039205,-2.504001 0.021564,0 0.7582243,0.39793 1.637026,0.884289 l 1.5978203,0.88429 v 0.771493 0.771492 l -0.4844256,0.245336 c -0.2664344,0.134935 -1.003096,0.516634 -1.637026,0.848219 l -1.1525996,0.602883 z"
       id="path1021" />
    <path
       id="path1049"
       style="fill:#ff7b00;fill-opacity:1;fill-rule:evenodd;stroke:none;stroke-width:0.245669;stroke-linejoin:round;stroke-miterlimit:4;stroke-dasharray:none;paint-order:markers stroke fill"
       d="m 85.642578,21.716797 a 14.142091,13.258255 0 0 0 -13.552734,9.505859 10.732871,10.227795 0 0 0 -7.525391,-2.9375 10.732871,10.227795 0 0 0 -0.134765,0 10.732871,10.227795 0 0 0 -10.597657,10.226563 10.732871,10.227795 0 0 0 10.732422,10.228515 10.732871,10.227795 0 0 0 9.714844,-5.884765 14.142091,13.258255 0 0 0 11.373047,5.378906 14.142091,13.258255 0 0 0 14.140625,-13.257813 14.142091,13.258255 0 0 0 -14.140625,-13.259765 14.142091,13.258255 0 0 0 -0.0098,0 z m -0.0918,2.894531 a 10.861126,10.365544 0 0 1 0.101563,0 10.861126,10.365544 0 0 1 10.859375,10.365234 10.861126,10.365544 0 0 1 -10.859375,10.365235 10.861126,10.365544 0 0 1 -10.367188,-7.267578 10.732871,10.227795 0 0 0 -0.484375,-2.63086 10.861126,10.365544 0 0 1 -0.01172,-0.466797 10.861126,10.365544 0 0 1 10.76172,-10.365234 z m -21.011719,6.703125 a 7.1973366,7.1973369 0 0 1 0.02539,0 7.1973366,7.1973369 0 0 1 7.197266,7.197266 7.1973366,7.1973369 0 0 1 -7.197266,7.197265 7.1973366,7.1973369 0 0 1 -7.197265,-7.197265 7.1973366,7.1973369 0 0 1 7.171875,-7.197266 z"
       transform="scale(0.26458333)" />
  </g>
</svg>
